<svg viewBox="0 0 9 3" fill="#242A37" xmlns="http://www.w3.org/2000/svg">
<path d="M1.596 2.08402C1.33467 2.08402 1.11067 1.99536 0.924 1.81802C0.737333 1.63136 0.644 1.39802 0.644 1.11802C0.644 0.847356 0.737333 0.623356 0.924 0.446023C1.11067 0.259356 1.33467 0.166023 1.596 0.166023C1.85733 0.166023 2.07667 0.254689 2.254 0.432023C2.43133 0.609356 2.52 0.838023 2.52 1.11802C2.52 1.39802 2.42667 1.63136 2.24 1.81802C2.06267 1.99536 1.848 2.08402 1.596 2.08402ZM4.76788 2.08402C4.50654 2.08402 4.28254 1.99536 4.09587 1.81802C3.90921 1.63136 3.81588 1.39802 3.81588 1.11802C3.81588 0.847356 3.90921 0.623356 4.09587 0.446023C4.28254 0.259356 4.50654 0.166023 4.76788 0.166023C5.02921 0.166023 5.24854 0.254689 5.42588 0.432023C5.60321 0.609356 5.69188 0.838023 5.69188 1.11802C5.69188 1.39802 5.59854 1.63136 5.41188 1.81802C5.23454 1.99536 5.01988 2.08402 4.76788 2.08402ZM7.93975 2.08402C7.67842 2.08402 7.45442 1.99536 7.26775 1.81802C7.08108 1.63136 6.98775 1.39802 6.98775 1.11802C6.98775 0.847356 7.08108 0.623356 7.26775 0.446023C7.45442 0.259356 7.67842 0.166023 7.93975 0.166023C8.20108 0.166023 8.42042 0.254689 8.59775 0.432023C8.77508 0.609356 8.86375 0.838023 8.86375 1.11802C8.86375 1.39802 8.77042 1.63136 8.58375 1.81802C8.40642 1.99536 8.19175 2.08402 7.93975 2.08402Z" fill="#242A37"/>
</svg>
