<svg width="22" height="17" viewBox="0 0 22 17" fill="none" xmlns="http://www.w3.org/2000/svg">
<path d="M20 0.500023C18.89 0.150023 17.67 2.28882e-05 16.5 2.28882e-05C14.55 2.28882e-05 12.45 0.400023 11 1.50002C9.55 0.400023 7.45 2.28882e-05 5.5 2.28882e-05C3.55 2.28882e-05 1.45 0.400023 0 1.50002V16.15C0 16.4 0.25 16.65 0.5 16.65C0.6 16.65 0.65 16.6 0.75 16.6C2.1 15.95 4.05 15.5 5.5 15.5C7.45 15.5 9.55 15.9 11 17C12.35 16.15 14.8 15.5 16.5 15.5C18.15 15.5 19.85 15.8 21.25 16.55C21.35 16.6 21.4 16.6 21.5 16.6C21.75 16.6 22 16.35 22 16.1V1.50002C21.4 1.05002 20.75 0.750023 20 0.500023ZM20 14C18.9 13.65 17.7 13.5 16.5 13.5C14.8 13.5 12.35 14.15 11 15V3.50002C12.35 2.65002 14.8 2.00002 16.5 2.00002C17.7 2.00002 18.9 2.15002 20 2.50002V14Z" fill="#A6ABB9"/>
<path d="M16.5 6.00002C17.38 6.00002 18.23 6.09002 19 6.26002V4.74002C18.21 4.59002 17.36 4.50002 16.5 4.50002C14.8 4.50002 13.26 4.79002 12 5.33002V6.99002C13.13 6.35002 14.7 6.00002 16.5 6.00002Z" fill="#A6ABB9"/>
<path d="M12 7.99002V9.65002C13.13 9.01002 14.7 8.66002 16.5 8.66002C17.38 8.66002 18.23 8.75002 19 8.92002V7.40002C18.21 7.25002 17.36 7.16002 16.5 7.16002C14.8 7.16002 13.26 7.46002 12 7.99002Z" fill="#A6ABB9"/>
<path d="M16.5 9.83002C14.8 9.83002 13.26 10.12 12 10.66V12.32C13.13 11.68 14.7 11.33 16.5 11.33C17.38 11.33 18.23 11.42 19 11.59V10.07C18.21 9.91002 17.36 9.83002 16.5 9.83002Z" fill="#A6ABB9"/>
</svg>
