<svg aria-hidden="true" style="position:absolute;width:0;height:0;overflow:hidden" xmlns="http://www.w3.org/2000/svg"><defs><symbol id="icon-back" viewBox="0 0 64 32"><path fill="#ff6b08" style="fill:var(--color1, #ff6b08)" d="M.733 17.269v.003l13.067 13a2.501 2.501 0 0 0 3.524-3.545l.001.002-8.771-8.728h52.944a2.5 2.5 0 1 0 0-5H8.557l8.773-8.728A2.503 2.503 0 0 0 13.794.729l-13.061 13c-.454.453-.735 1.079-.735 1.771s.281 1.318.735 1.771z"/></symbol><symbol id="icon-book" viewBox="0 0 41 32"><path fill="#a6abb9" style="fill:var(--color2, #a6abb9)" d="M37.647.941C35.558.282 33.261 0 31.059 0c-3.671 0-7.624.753-10.353 2.824C17.977.753 14.024 0 10.353 0S2.729.753 0 2.824V30.4c0 .471.471.941.941.941.188 0 .282-.094.471-.094 2.541-1.224 6.212-2.071 8.941-2.071 3.671 0 7.624.753 10.353 2.824 2.541-1.6 7.153-2.824 10.353-2.824 3.106 0 6.306.565 8.941 1.976.188.094.282.094.471.094.471 0 .941-.471.941-.941V2.823c-1.129-.847-2.353-1.412-3.765-1.882zm0 25.412c-2.071-.659-4.329-.941-6.588-.941-3.2 0-7.812 1.224-10.353 2.824V6.589c2.541-1.6 7.153-2.824 10.353-2.824 2.259 0 4.518.282 6.588.941v21.647z"/></symbol><symbol id="icon-delete" viewBox="0 0 25 32"><path fill="#a6abb9" style="fill:var(--color2, #a6abb9)" d="M19.556 10.667v17.778H5.334V10.667h14.222zM16.889 0H8L6.222 1.778H0v3.556h24.889V1.778h-6.222L16.889 0zm6.222 7.111H1.778v21.333C1.778 30.4 3.378 32 5.334 32h14.222c1.956 0 3.556-1.6 3.556-3.556V7.111z"/></symbol><symbol id="icon-flag" viewBox="0 0 28 32"><path fill="#a6abb9" style="fill:var(--color2, #a6abb9)" d="m13.854 3.765.753 3.765h9.864v11.294h-6.325l-.753-3.765H3.765V3.765h10.089zM16.941 0H0v32h3.765V18.824h10.541l.753 3.765h13.176V3.765H17.694L16.941 0z"/></symbol><symbol id="icon-done" viewBox="0 0 48 32"><path fill="#ff6b08" style="fill:var(--color1, #ff6b08)" d="M47.8 4.772 18.04 31.82a.72.72 0 0 1-.945-.001l.001.001-16.9-15.36a.57.57 0 0 1-.001-.859l.001-.001 4.108-3.732c.126-.111.292-.178.474-.178s.348.067.475.179l-.001-.001 12.32 11.2L42.748.176a.72.72 0 0 1 .945.001l-.001-.001L47.8 3.908a.57.57 0 0 1 .001.859l-.001.001z"/></symbol><symbol id="icon-enter" viewBox="0 0 27 32"><path fill="#ff6b08" style="fill:var(--color1, #ff6b08)" d="M22.907 22.883c-.061-.304-.312-.448-.493-.64-1.315-1.387-2.651-2.765-3.971-4.157-.56-.589-.613-1.221-.168-1.669.443-.448 1.061-.408 1.608.16 2.107 2.187 4.211 4.381 6.307 6.579.643.675.635 1.147-.013 1.829-2.08 2.181-4.163 4.357-6.253 6.525-.576.597-1.139.643-1.608.171-.467-.475-.397-1.085.16-1.672 1.301-1.371 2.616-2.733 3.92-4.104.184-.192.427-.339.499-.643-.205-.211-.461-.112-.688-.112-6.869-.008-13.741-.011-20.619-.011-1.301 0-1.579-.293-1.579-1.653V1.667a4.277 4.277 0 0 1 .023-.78L.03.907C.142.347.483-.01 1.046 0c.56.011.893.365.997.931.027.227.029.453.016.683 0 6.867.011 13.733-.011 20.589 0 .651.176.8.773.797 6.453-.021 12.912-.013 19.368-.016.248.011.507.099.72-.101z"/></symbol><symbol id="icon-home" viewBox="0 0 38 32"><path fill="#a6abb9" style="fill:var(--color2, #a6abb9)" d="m18.824 5.064 9.412 8.471v14.701h-3.765V16.942H13.177v11.294H9.412V13.535l9.412-8.471zm0-5.064L0 16.941h5.647V32h11.294V20.706h3.765V32H32V16.941h5.647L18.823 0z"/></symbol><symbol id="icon-like" viewBox="0 0 35 32"><path fill="#a6abb9" style="fill:var(--color2, #a6abb9)" d="M12.696 31.478H26.794a3.111 3.111 0 0 0 2.861-1.889l.008-.02 4.727-11.035c.139-.338.219-.731.219-1.142v-3.13a3.14 3.14 0 0 0-3.13-3.13h-9.877l1.487-7.153.047-.501c0-.642-.266-1.237-.689-1.66L20.786.175 10.473 10.49a3.101 3.101 0 0 0-.908 2.196v.011-.001 15.652a3.14 3.14 0 0 0 3.13 3.13zm0-18.782 6.793-6.793-2.097 8.358h14.087v3.13l-4.696 10.957H12.696V12.696zm-12.522 0h6.261v18.783H.174V12.696z"/></symbol><symbol id="icon-save" viewBox="0 0 32 32"><path fill="#a6abb9" style="fill:var(--color2, #a6abb9)" d="M28.25 2.5h-1.5V0h-2.5v2.5H7.749V0H5.251v2.5h-1.5A3.754 3.754 0 0 0-.001 6.249V28.25A3.755 3.755 0 0 0 3.749 32H28.25A3.754 3.754 0 0 0 32 28.251V6.25a3.754 3.754 0 0 0-3.749-3.75zm1.25 25.75a1.252 1.252 0 0 1-1.25 1.25H3.749a1.252 1.252 0 0 1-1.25-1.25V11.749h27V28.25zm0-19h-27v-3C2.5 5.561 3.061 5 3.75 5h1.5v2.5h2.5V5h16.501v2.5h2.5V5h1.5c.689 0 1.25.561 1.25 1.25v3z"/></symbol><symbol id="icon-Star" viewBox="0 0 34 32"><path fill="none" stroke="#a6abb9" style="stroke:var(--color2, #a6abb9)" stroke-width="2" d="m17 3.236 3.09 9.51h10L22 18.624l.224.692 2.866 8.82L17 22.258l-.588.426-7.502 5.452L12 18.624l-.588-.424-7.502-5.454h10l.224-.69L17 3.236z"/></symbol><symbol id="icon-phone" viewBox="0 0 32 32"><path d="M22 20c-2 2-2 4-4 4s-4-2-6-4-4-4-4-6 2-2 4-4-4-8-6-8-6 6-6 6c0 4 4.109 12.109 8 16s12 8 16 8c0 0 6-4 6-6s-6-8-8-6z"/></symbol><symbol id="icon-user-tie" viewBox="0 0 32 32"><path d="M10 6a6 6 0 1 1 12 0 6 6 0 0 1-12 0zm14.002 8h-1.107l-6.222 12.633L19 15l-3-3-3 3 2.327 11.633L9.105 14H7.998C4 14 4 16.687 4 20v10h24V20c0-3.313 0-6-3.998-6z"/></symbol><symbol id="icon-telegram" viewBox="0 0 32 32"><path d="M16 0C7.162 0 0 7.162 0 16s7.162 16 16 16 16-7.163 16-16S24.837 0 16 0zm7.863 10.969-2.625 12.369c-.181.881-.712 1.087-1.45.681l-4-2.956-1.919 1.869c-.225.219-.4.4-.8.4-.519 0-.431-.194-.606-.688L11.1 18.169l-3.956-1.231c-.856-.262-.862-.85.194-1.269l15.412-5.95c.7-.319 1.381.169 1.113 1.25z"/></symbol><symbol id="icon-Polygon" viewBox="0 0 69 32" ><path d="M34.667 32l-30.027-28h60.053l-30.027 28z"></path></symbol></defs></svg>